<svg id="Layer_1" data-name="Layer 1" xmlns="http://www.w3.org/2000/svg" viewBox="0 0 984.06 523.9"><defs><style>.cls-1{fill:#fff;}.cls-2{fill:#00427a;}.cls-3{fill:#ec008c;}.cls-10,.cls-3,.cls-5,.cls-6,.cls-7,.cls-8{fill-rule:evenodd;}.cls-11,.cls-4,.cls-9{fill:none;}.cls-4{stroke:#e62b72;}.cls-11,.cls-4,.cls-6,.cls-7,.cls-9{stroke-miterlimit:22.93;stroke-width:1.05px;}.cls-5{fill:#00aeef;}.cls-6,.cls-7,.cls-8{fill:#00adee;}.cls-6,.cls-9{stroke:#00b8e9;}.cls-7{stroke:#00adee;}.cls-10{fill:#009a67;}.cls-11{stroke:#30a353;}</style></defs><rect class="cls-1" x="21.64" y="13.74" width="936.34" height="293.44"/><path class="cls-2" d="M80.7,545.31a26.78,26.78,0,0,1-12.4,2.74c-14.88,0-24.17-10.63-24.17-30.71,0-18,9.11-30.54,24.35-30.54,3.45,0,7.87.45,11.41,2.48A2.33,2.33,0,0,1,81,492.46l-2.3,4.7a2.07,2.07,0,0,1-2.84,1,15.93,15.93,0,0,0-6.28-1.32c-7.87,0-13.18,5.49-13.18,20.62,0,14.69,5,20.18,13.36,20.18A18.75,18.75,0,0,0,76.35,536a2.11,2.11,0,0,1,2.83.88l2.31,5.4a2.28,2.28,0,0,1-.79,3Z" transform="translate(-17.47 -120.58)"/><path class="cls-2" d="M106.61,496.1c-8.14,0-9.38,9.29-9.38,21.24,0,13,1.33,21.15,9.38,21.15s9.47-8.23,9.47-21.15c0-12.05-1.42-21.24-9.47-21.24Zm.09,51.95c-14.43,0-21.78-10.53-21.78-30.36,0-19.47,7.17-30.89,21.78-30.89,14.07,0,21.51,10.44,21.51,30.89,0,19.56-7,30.36-21.51,30.36Z" transform="translate(-17.47 -120.58)"/><path class="cls-2" d="M189.53,547.44h-7.18a2.89,2.89,0,0,1-2.83-2.49l-1.15-36.21c-.08-1.85.09-10.26.09-12.64-.44,3.36-1.15,9.73-1.86,12.64l-6.89,30.11a3.17,3.17,0,0,1-3.1,2.2h-7.44a3.15,3.15,0,0,1-3.1-2.2l-6.54-30.11c-.63-2.64-1.43-9.28-1.95-12.64,0,1.77.26,10.61.17,12.64L146.42,545a3,3,0,0,1-2.82,2.49h-7.1a2.2,2.2,0,0,1-2.12-2.49l4.79-55.06a2.94,2.94,0,0,1,2.83-2.47h10.08a3.18,3.18,0,0,1,3.11,2.21l6.73,33.29c.43,2.38.88,8,1.14,11.06.27-3,.71-8.93,1.15-11.06l7-33.29a3.18,3.18,0,0,1,3.12-2.21h9.82a2.94,2.94,0,0,1,2.82,2.47L191.65,545a2.2,2.2,0,0,1-2.12,2.49Z" transform="translate(-17.47 -120.58)"/><path class="cls-2" d="M219.61,520.43h-6.74v16.82h8c4.51,0,7.52-3.45,7.52-8.5a8.36,8.36,0,0,0-8.75-8.32Zm-.54-23.36h-6.2v14.25h5.93c4.87,0,7.53-3.19,7.53-7.17,0-4.25-2.3-7.08-7.26-7.08Zm4.25,50.37H203.4a2.53,2.53,0,0,1-2.48-2.39V489.81a2.52,2.52,0,0,1,2.48-2.39h18.69c10.34,0,16.28,6.82,16.28,15.75,0,5.67-2.48,9.74-8.58,12.22A14.87,14.87,0,0,1,241,530.26c0,10.89-6.1,17.18-17.7,17.18Z" transform="translate(-17.47 -120.58)"/><path class="cls-2" d="M268.62,502.82c-.62-2.65-1.05-7-1.32-9.38a73.17,73.17,0,0,1-1.33,9.38l-4.61,20.71h12.13l-4.87-20.71ZM290,547.44h-8a3,3,0,0,1-3.1-2.21l-2.83-11.08H258.89l-2.65,11.08a3.11,3.11,0,0,1-3.1,2.21h-7.35c-1.77,0-2.48-1.52-2-3.1l15.4-54.71a3.23,3.23,0,0,1,3.08-2.21h10.19a3.33,3.33,0,0,1,3.1,2.21l16.55,54.71c.44,1.58-.27,3.1-2,3.1Z" transform="translate(-17.47 -120.58)"/><path class="cls-2" d="M325.78,498.22H314.27V545a2.53,2.53,0,0,1-2.47,2.47h-7a2.53,2.53,0,0,1-2.49-2.47V498.22H290.82a2.54,2.54,0,0,1-2.48-2.49v-5.84a2.54,2.54,0,0,1,2.48-2.47h35a2.52,2.52,0,0,1,2.48,2.47v5.84a2.53,2.53,0,0,1-2.48,2.49Z" transform="translate(-17.47 -120.58)"/><path class="cls-2" d="M365.35,547.44H336.59a2.55,2.55,0,0,1-2.5-2.49V489.89a2.54,2.54,0,0,1,2.5-2.47h28a2.53,2.53,0,0,1,2.47,2.47v5.24a2.53,2.53,0,0,1-2.47,2.47h-18.5v13.28h16.46a2.52,2.52,0,0,1,2.48,2.47v4.79a2.53,2.53,0,0,1-2.48,2.47H346.05v16.2h19.3a2.53,2.53,0,0,1,2.47,2.47V545a2.54,2.54,0,0,1-2.47,2.49Z" transform="translate(-17.47 -120.58)"/><path class="cls-2" d="M416,547.44H405.25a2.79,2.79,0,0,1-2.75-2l-11.95-31.69c-1.41-3.63-2.57-9.47-4-14.87.63,5.49,1.7,14.07,1.7,17.8v28.41a2.53,2.53,0,0,1-2.49,2.39H379.4a2.52,2.52,0,0,1-2.48-2.39V489.81a2.52,2.52,0,0,1,2.48-2.39h10c1.44,0,3.37.8,3.83,2l11,30.44c1.34,3.73,2.39,8.68,4,14.44-.52-5.76-1-12.23-1-16.65V489.81a2.52,2.52,0,0,1,2.49-2.39H416a2.52,2.52,0,0,1,2.47,2.39v55.24a2.52,2.52,0,0,1-2.47,2.39Z" transform="translate(-17.47 -120.58)"/><path class="cls-2" d="M446.38,497.07h-4.5v40.28H446c8.67,0,11.59-5,11.59-20.19,0-13.19-2.73-20.09-11.16-20.09ZM449,547.43H432.41a2.54,2.54,0,0,1-2.48-2.47V489.89a2.53,2.53,0,0,1,2.48-2.47h15.93c8.41,0,21.51,3.18,21.51,30,0,17.44-4.25,30-20.89,30Z" transform="translate(-17.47 -120.58)"/><path class="cls-2" d="M498,496.1c-8.16,0-9.4,9.29-9.4,21.24,0,13,1.34,21.15,9.4,21.15s9.47-8.23,9.47-21.15c0-12.05-1.43-21.24-9.47-21.24Zm.09,51.95c-14.44,0-21.78-10.53-21.78-30.36,0-19.47,7.16-30.89,21.78-30.89,14.06,0,21.5,10.44,21.5,30.89,0,19.56-7,30.36-21.5,30.36Z" transform="translate(-17.47 -120.58)"/><path class="cls-2" d="M576.82,547.44H548.06a2.55,2.55,0,0,1-2.5-2.49V489.89a2.54,2.54,0,0,1,2.5-2.47h28a2.54,2.54,0,0,1,2.49,2.47v5.24A2.54,2.54,0,0,1,576,497.6h-18.5v13.28H574a2.52,2.52,0,0,1,2.48,2.47v4.79a2.52,2.52,0,0,1-2.48,2.47H557.52v16.2h19.3a2.53,2.53,0,0,1,2.48,2.47V545a2.54,2.54,0,0,1-2.48,2.49Z" transform="translate(-17.47 -120.58)"/><path class="cls-2" d="M631.68,545.23a3.28,3.28,0,0,1-3.1,2.21H620a3.27,3.27,0,0,1-3.1-2.21l-16-54.71c-.44-1.59.26-3.1,2-3.1h7.88A3.07,3.07,0,0,1,614,490l8.85,36.91a89,89,0,0,1,1.69,13.72,99.46,99.46,0,0,1,1.85-13.72L635,490.17c.44-1.86,1.42-2.75,3.27-2.75h7c1.76,0,2.48,1.51,2,3.1l-15.57,54.71Z" transform="translate(-17.47 -120.58)"/><path class="cls-2" d="M684.33,547.44H655.56a2.54,2.54,0,0,1-2.48-2.49V489.89a2.53,2.53,0,0,1,2.48-2.47h28a2.54,2.54,0,0,1,2.48,2.47v5.24a2.54,2.54,0,0,1-2.48,2.47H665v13.28H681.5a2.52,2.52,0,0,1,2.47,2.47v4.79a2.53,2.53,0,0,1-2.47,2.47H665v16.2h19.3a2.52,2.52,0,0,1,2.47,2.47V545a2.53,2.53,0,0,1-2.47,2.49Z" transform="translate(-17.47 -120.58)"/><path class="cls-2" d="M734.94,547.44H724.23a2.77,2.77,0,0,1-2.74-2l-12-31.69c-1.41-3.63-2.56-9.47-4-14.87.62,5.49,1.68,14.07,1.68,17.8v28.41a2.53,2.53,0,0,1-2.49,2.39h-6.37a2.52,2.52,0,0,1-2.47-2.39V489.81a2.52,2.52,0,0,1,2.47-2.39h10c1.41,0,3.35.8,3.81,2l11.06,30.44c1.33,3.73,2.38,8.68,4,14.44-.52-5.76-1-12.23-1-16.65V489.81a2.52,2.52,0,0,1,2.49-2.39h6.19a2.52,2.52,0,0,1,2.48,2.39v55.24a2.52,2.52,0,0,1-2.48,2.39Z" transform="translate(-17.47 -120.58)"/><path class="cls-2" d="M781.75,545.31a26.7,26.7,0,0,1-12.4,2.74c-14.87,0-24.16-10.63-24.16-30.71,0-18,9.12-30.54,24.33-30.54,3.46,0,7.9.45,11.44,2.48a2.35,2.35,0,0,1,1.15,3.18l-2.31,4.7a2.05,2.05,0,0,1-2.83,1,16.09,16.09,0,0,0-6.29-1.32c-7.87,0-13.18,5.49-13.18,20.62,0,14.69,5,20.18,13.36,20.18a18.86,18.86,0,0,0,6.56-1.59,2.1,2.1,0,0,1,2.82.88l2.3,5.4a2.27,2.27,0,0,1-.79,3Z" transform="translate(-17.47 -120.58)"/><path class="cls-2" d="M821.21,547.44H792.44A2.55,2.55,0,0,1,790,545V489.89a2.54,2.54,0,0,1,2.48-2.47h28a2.53,2.53,0,0,1,2.48,2.47v5.24a2.53,2.53,0,0,1-2.48,2.47h-18.5v13.28h16.47a2.53,2.53,0,0,1,2.48,2.47v4.79a2.54,2.54,0,0,1-2.48,2.47H801.91v16.2h19.3a2.55,2.55,0,0,1,2.49,2.47V545a2.56,2.56,0,0,1-2.49,2.49Z" transform="translate(-17.47 -120.58)"/><path class="cls-2" d="M871.82,547.44h-10.7a2.79,2.79,0,0,1-2.75-2l-11.94-31.69c-1.42-3.63-2.57-9.47-4-14.87.62,5.49,1.69,14.07,1.69,17.8v28.41a2.53,2.53,0,0,1-2.49,2.39h-6.37a2.53,2.53,0,0,1-2.48-2.39V489.81a2.52,2.52,0,0,1,2.48-2.39h10c1.43,0,3.37.8,3.82,2l11.06,30.44c1.33,3.73,2.4,8.68,4,14.44-.53-5.76-1-12.23-1-16.65V489.81a2.53,2.53,0,0,1,2.5-2.39h6.18a2.52,2.52,0,0,1,2.48,2.39v55.24a2.52,2.52,0,0,1-2.48,2.39Z" transform="translate(-17.47 -120.58)"/><path class="cls-2" d="M902.27,497.07h-4.52v40.28h4.07c8.66,0,11.59-5,11.59-20.19,0-13.19-2.74-20.09-11.14-20.09Zm2.56,50.36H888.28a2.54,2.54,0,0,1-2.49-2.47V489.89a2.53,2.53,0,0,1,2.49-2.47h15.93c8.41,0,21.51,3.18,21.51,30,0,17.44-4.25,30-20.89,30Z" transform="translate(-17.47 -120.58)"/><path class="cls-2" d="M953.85,496.1c-8.15,0-9.39,9.29-9.39,21.24,0,13,1.33,21.15,9.39,21.15s9.46-8.23,9.46-21.15c0-12.05-1.41-21.24-9.46-21.24Zm.09,51.95c-14.43,0-21.78-10.53-21.78-30.36,0-19.47,7.17-30.89,21.78-30.89,14.07,0,21.51,10.44,21.51,30.89,0,19.56-7,30.36-21.51,30.36Z" transform="translate(-17.47 -120.58)"/><path class="cls-2" d="M194.07,592.53c-8.13,0-9.38,9.29-9.38,21.25,0,13,1.33,21.15,9.38,21.15s9.47-8.23,9.47-21.15c0-12-1.42-21.25-9.47-21.25Zm.11,52c-14.44,0-21.79-10.53-21.79-30.36,0-19.48,7.17-30.88,21.79-30.88,14.06,0,21.49,10.43,21.49,30.88,0,19.56-7,30.36-21.49,30.36Z" transform="translate(-17.47 -120.58)"/><path class="cls-2" d="M274.51,641.75a26.67,26.67,0,0,1-12.38,2.74c-14.88,0-24.18-10.63-24.18-30.72,0-18,9.12-30.53,24.35-30.53,3.46,0,7.87.44,11.42,2.47a2.36,2.36,0,0,1,1.15,3.19l-2.31,4.69a2,2,0,0,1-2.83,1,15.83,15.83,0,0,0-6.28-1.32c-7.87,0-13.19,5.48-13.19,20.62,0,14.7,5,20.19,13.37,20.19a18.53,18.53,0,0,0,6.54-1.61,2.15,2.15,0,0,1,2.84.89l2.31,5.4a2.28,2.28,0,0,1-.81,3Z" transform="translate(-17.47 -120.58)"/><path class="cls-2" d="M302,599.26a93.92,93.92,0,0,1-1.33-9.38,73.17,73.17,0,0,1-1.33,9.38L294.77,620h12.12L302,599.26Zm11.33-20.18a2.35,2.35,0,0,1-3.19.61l-10-5.66-10,5.66a2.3,2.3,0,0,1-3.17-.61L285.66,577a2.23,2.23,0,0,1,.52-3.1l12.21-9.29a2.61,2.61,0,0,1,3.55,0l12.21,9.29a2.42,2.42,0,0,1,.53,3.1l-1.32,2.13Zm10.09,64.79h-8a3,3,0,0,1-3.1-2.21l-2.83-11.07H292.29l-2.66,11.07a3.07,3.07,0,0,1-3.1,2.21h-7.34c-1.77,0-2.47-1.5-2-3.1l15.4-54.7a3.24,3.24,0,0,1,3.1-2.21h10.18a3.29,3.29,0,0,1,3.09,2.21l16.56,54.7c.44,1.6-.26,3.1-2,3.1Z" transform="translate(-17.47 -120.58)"/><path class="cls-2" d="M371,643.87H360.26a2.76,2.76,0,0,1-2.74-2l-12-31.68c-1.42-3.64-2.56-9.47-4-14.88.62,5.49,1.69,14.07,1.69,17.8v28.4a2.52,2.52,0,0,1-2.48,2.4h-6.38a2.52,2.52,0,0,1-2.48-2.4V586.24a2.52,2.52,0,0,1,2.48-2.38h10c1.41,0,3.36.79,3.8,2l11.06,30.44c1.32,3.73,2.39,8.68,4,14.44-.52-5.76-1-12.21-1-16.64V586.24a2.51,2.51,0,0,1,2.48-2.38H371a2.51,2.51,0,0,1,2.47,2.38v55.23a2.52,2.52,0,0,1-2.47,2.4Z" transform="translate(-17.47 -120.58)"/><path class="cls-2" d="M417.78,641.75a26.78,26.78,0,0,1-12.4,2.74c-14.88,0-24.16-10.63-24.16-30.72,0-18,9.11-30.53,24.34-30.53,3.45,0,7.87.44,11.42,2.47a2.36,2.36,0,0,1,1.15,3.19l-2.3,4.69a2,2,0,0,1-2.84,1,15.84,15.84,0,0,0-6.29-1.32c-7.87,0-13.18,5.48-13.18,20.62,0,14.7,5,20.19,13.37,20.19a18.48,18.48,0,0,0,6.54-1.61,2.13,2.13,0,0,1,2.83.89l2.31,5.4a2.29,2.29,0,0,1-.79,3Z" transform="translate(-17.47 -120.58)"/><path class="cls-2" d="M457.24,643.87H428.48a2.54,2.54,0,0,1-2.5-2.48v-55a2.54,2.54,0,0,1,2.5-2.48h27.95a2.53,2.53,0,0,1,2.48,2.48v5.22a2.54,2.54,0,0,1-2.48,2.48h-18.5v13.27H454.4a2.54,2.54,0,0,1,2.48,2.49v4.78a2.54,2.54,0,0,1-2.48,2.47H437.93v16.19h19.31a2.55,2.55,0,0,1,2.48,2.49v5.66a2.54,2.54,0,0,1-2.48,2.48Z" transform="translate(-17.47 -120.58)"/><path class="cls-2" d="M487.05,594.12h-6.28v15.22h5.39c5,0,7.8-3.71,7.8-8.13,0-3.1-2-7.09-6.91-7.09Zm21.42,49.75h-7.7a3.7,3.7,0,0,1-3.89-2.84c-2.66-7.88-5.5-22.82-13.82-22.82h-2.29v23.27a2.53,2.53,0,0,1-2.49,2.39h-7a2.51,2.51,0,0,1-2.48-2.39V586.25a2.5,2.5,0,0,1,2.48-2.39h16.2c15.39,0,18.57,9.47,18.57,15.85,0,7.78-4.42,12.91-11.77,14.5a13.66,13.66,0,0,1,8.06,7.09c2.13,4.41,6.37,15.31,7.88,19.11.8,2,.62,3.46-1.77,3.46Z" transform="translate(-17.47 -120.58)"/><path class="cls-2" d="M544.56,643.87h-7.35a2.52,2.52,0,0,1-2.47-2.48v-55a2.52,2.52,0,0,1,2.47-2.48h7.35a2.53,2.53,0,0,1,2.48,2.48v55a2.53,2.53,0,0,1-2.48,2.48Z" transform="translate(-17.47 -120.58)"/><path class="cls-2" d="M598.72,643.87H588a2.8,2.8,0,0,1-2.76-2l-11.93-31.68c-1.42-3.64-2.56-9.47-4-14.88.62,5.49,1.69,14.07,1.69,17.8v28.4a2.52,2.52,0,0,1-2.48,2.4h-6.37a2.52,2.52,0,0,1-2.48-2.4V586.24a2.52,2.52,0,0,1,2.48-2.38h10c1.41,0,3.36.79,3.8,2L587,616.33c1.32,3.73,2.39,8.68,4,14.44-.52-5.76-1-12.21-1-16.64V586.24a2.51,2.51,0,0,1,2.49-2.38h6.19a2.51,2.51,0,0,1,2.47,2.38v55.23a2.52,2.52,0,0,1-2.47,2.4Z" transform="translate(-17.47 -120.58)"/><path class="cls-2" d="M642,594H624.63v13.71h15.24a2.53,2.53,0,0,1,2.47,2.48V615a2.54,2.54,0,0,1-2.47,2.48H624.63v23.9a2.52,2.52,0,0,1-2.47,2.48h-7a2.53,2.53,0,0,1-2.47-2.48v-55a2.52,2.52,0,0,1,2.47-2.48H642a2.52,2.52,0,0,1,2.47,2.48v5.22A2.54,2.54,0,0,1,642,594Z" transform="translate(-17.47 -120.58)"/><path class="cls-2" d="M668.35,599.26a93.8,93.8,0,0,1-1.32-9.38,76.89,76.89,0,0,1-1.33,9.38L661.09,620h12.13l-4.87-20.71Zm21.43,44.61h-8a3,3,0,0,1-3.1-2.21l-2.83-11.07H658.62L656,641.66a3.05,3.05,0,0,1-3.08,2.21h-7.36c-1.76,0-2.47-1.5-2-3.1l15.4-54.7a3.22,3.22,0,0,1,3.08-2.21h10.18a3.31,3.31,0,0,1,3.1,2.21l16.56,54.7c.44,1.6-.26,3.1-2,3.1Z" transform="translate(-17.47 -120.58)"/><path class="cls-2" d="M737.29,643.87H726.58a2.78,2.78,0,0,1-2.75-2l-11.94-31.68c-1.42-3.64-2.58-9.47-4-14.88.63,5.49,1.68,14.07,1.68,17.8v28.4a2.51,2.51,0,0,1-2.46,2.4h-6.39a2.51,2.51,0,0,1-2.47-2.4V586.24a2.51,2.51,0,0,1,2.47-2.38h10c1.42,0,3.37.79,3.81,2l11.08,30.44c1.32,3.73,2.38,8.68,4,14.44-.54-5.76-1-12.21-1-16.64V586.24a2.51,2.51,0,0,1,2.47-2.38h6.2a2.52,2.52,0,0,1,2.48,2.38v55.23a2.53,2.53,0,0,1-2.48,2.4Z" transform="translate(-17.47 -120.58)"/><path class="cls-2" d="M782.86,594.65H771.35v46.74a2.54,2.54,0,0,1-2.48,2.48h-7a2.52,2.52,0,0,1-2.46-2.48V594.65H747.89a2.53,2.53,0,0,1-2.48-2.48v-5.83a2.54,2.54,0,0,1,2.48-2.48h35a2.54,2.54,0,0,1,2.48,2.48v5.83a2.53,2.53,0,0,1-2.48,2.48Z" transform="translate(-17.47 -120.58)"/><path class="cls-2" d="M802,643.87h-7.34a2.53,2.53,0,0,1-2.48-2.48v-55a2.53,2.53,0,0,1,2.48-2.48H802a2.54,2.54,0,0,1,2.49,2.48v55a2.54,2.54,0,0,1-2.49,2.48Z" transform="translate(-17.47 -120.58)"/><path class="cls-2" d="M846.91,643.87H819.57a2.53,2.53,0,0,1-2.49-2.48v-55a2.53,2.53,0,0,1,2.49-2.48h7a2.53,2.53,0,0,1,2.48,2.48v46.9h17.87a2.55,2.55,0,0,1,2.49,2.49v5.66a2.54,2.54,0,0,1-2.49,2.48Z" transform="translate(-17.47 -120.58)"/><path class="cls-3" d="M592.64,251.77l.64-1,1-.66,1.29-.66h1l2.24,1,1.61,2,14.5,49.69.32,1.64-.64,1.63-1.29,1.32-1.61.64-32.86,2.94-4.17-.65L571.39,307l-1-2-.32-1.95v-2.3l.64-2,21.91-47.08Zm-2.9-46.33L554,280.59l-1,8.84L551.74,298l-1.94,8.52L546.9,315l-4.83,4.43-3.54,5.36L536,330.49l-1.62,6.63-.64,3.79.64,3.78,2.27,3.16,3.21,2.21,2.57.32,2.27-.64,2.24-1.57,2-2.54L553,339l3.86-8.21,54.75-6,4.19,1.58c22.32,13.6,8,26.32,22.23,33.78l4.17,1.27,5.15-4.43,3.55-5.68,1.29-6.31-.31-6.94-7.74-23.69-6.77-22.74-7.08-22.73-6.76-24L613.25,214.6l-1-2.84L611,209.23c-3.08-5-12-8.49-17.06-5.69l-1.62.32-1.29.63-1.29.95Zm-348,5.58-6.58-5.71-6.83-4.09-5.44-4.43-8-2.95c-21.6-5-46.79-.36-64.8,12.8L145,210.08l-4.42,4.37-4.43,4.36L132,223.49l-3.8,5.31-4.42,2.5-3.8,3.12-3.46,4.06-2.87,4.69-2.2,5.29-1.9,5.94L108,260.33l-.94,6.25-1,13.1.32,12.18.63,5.93.94,5.31,1.28,4.68,1.26,4.06,12.65,23.1,1.57,2.5,1.9,1.87,2.21,1.87,2.53,1.24,7,2.5,7.26,2.5,6.95,2.19,7,2.18,6.32,2.8,6.65,2.2L179.1,358h6.62l6.64-.63,6.65-1.56,6.33-2.5,6.31-3.43,19.6-15,1.27-.94c4.94-9.33,6-16.85,17.39-23.42l3.78-5.93,2.22-6.54.64-6.87-.64-7.18v-4.38l-1.58-3.43-3.16-3.12-4.44-2.49-5-2.19-5.7-1.57-5.37-.92-5.38-.63L186.36,265l-1.9.31-1.58,1.25-.63,1.87v2.19l5.06,15.29.63.93.62.64.64.3,1,.32L227.77,290l.63.31.32.32h.63l.32.3,2.22,2.81.63,3.43-.33,3.12-1.57,3.13-2.52,1.24-1.91,2.2-.95,2.81.32,2.8.32.63-28.46,15.6-8.53,3.44-8.86.94-9.16-.94-8.53-3.44-9.49-7.49-8.22-8.43c-15.68-17.24-20-38.06-14.54-60.24l2.53-4.68,3.16-4.07C155.21,231,139,229.21,157.6,220.07l4.42-.94,27.5-10.31,12.33,1.88,21,1.77,6.14,2.38,3.75,2.72,3.75,2.39s6.13.35,7.49-1.36-.4-4.77-.4-4.77l-.3-.94-.32-.62-.64-.63-.62-.62Z" transform="translate(-17.47 -120.58)"/><path class="cls-4" d="M592.64,251.77l.64-1,1-.66,1.29-.66h1l2.24,1,1.61,2,14.5,49.69.32,1.64-.64,1.63-1.29,1.32-1.61.64-32.86,2.94-4.17-.65L571.39,307l-1-2-.32-1.95v-2.3l.64-2,21.91-47.08Zm-2.9-46.33L554,280.59l-1,8.84L551.74,298l-1.94,8.52L546.9,315l-4.83,4.43-3.54,5.36L536,330.49l-1.62,6.63-.64,3.79.64,3.78,2.27,3.16,3.21,2.21,2.57.32,2.27-.64,2.24-1.57,2-2.54L553,339l3.86-8.21,54.75-6,4.19,1.58c22.32,13.6,8,26.32,22.23,33.78l4.17,1.27,5.15-4.43,3.55-5.68,1.29-6.31-.31-6.94-7.74-23.69-6.77-22.74-7.08-22.73-6.76-24L613.25,214.6l-1-2.84L611,209.23c-4.65-6.18-11.47-8.08-18.68-5.37l-1.29.63-1.29.95Zm-348,5.58-6.58-5.71-6.83-4.09-5.44-4.43-8-2.95c-21.6-5-46.79-.36-64.8,12.8L145,210.08l-4.42,4.37-4.43,4.36L132,223.5l-3.8,5.3-4.42,2.5-3.8,3.13-3.46,4-2.87,4.69-2.2,5.3-1.9,5.93L108,260.34l-.94,6.25-1,13.09.32,12.18.63,5.93.94,5.31,1.28,4.68,1.26,4.06,12.65,23.1,1.57,2.5,1.9,1.87,2.21,1.87,2.53,1.24,7,2.5,7.26,2.5,6.95,2.19,7,2.18,6.32,2.8,6.65,2.2L179.1,358h6.62l6.64-.63,6.65-1.56,6.33-2.5,6.31-3.43,19.6-15,1.27-.94c4.94-9.32,6-16.85,17.39-23.42l3.78-5.93,2.23-6.54.63-6.87-.63-7.18v-4.38l-1.59-3.43-3.16-3.11-4.44-2.5-5-2.18L236,266.88l-5.38-.92-5.38-.63L186.36,265l-1.9.31-1.58,1.26-.63,1.87v2.18l5.06,15.29.63.94.62.63.64.3,1,.32L227.77,290l.64.31.31.32h.63l.32.31,2.22,2.8.63,3.43-.32,3.12-1.58,3.13-2.52,1.24-1.91,2.2-.95,2.81.32,2.8.32.63-28.46,15.6-8.52,3.44-8.87.94-9.16-.94-8.53-3.44-9.49-7.49-8.2-8.43c-15.7-17.24-20-38.06-14.56-60.24l2.53-4.68,3.16-4.06C155.21,231,139,229.21,157.6,220.07l4.42-.94,27.5-10.31,12.33,1.88,21,1.77,6.14,2.38,3.75,2.72,3.75,2.39s6.13.35,7.49-1.36-.4-4.77-.4-4.77l-.3-.94-.32-.62-.64-.63-.62-.62Z" transform="translate(-17.47 -120.58)"/><path class="cls-5" d="M771.9,224.31l-4.43-5.06-4.41-4.42c-11.72-10.2-28.67-14.54-43.63-9.8l-8.22,2.53L703,211l-7.59,4.43-7,5.05-6,6-5.38,6.95-5.19,6.18-4.93,7.1-4.72,6-3.48,7L656.83,267l-.94,13,2.27,13.25.94,6.64,2.21,6.32,1.2,6.35,4.12,5.38,12.64,17.39,7,8.53,7.91,7.27,8.53,6,9.8,5.05,49.63-10.42,4.11-.33c7.19-2.52,9.53-10.69,4.74-16.75l-3.16-2.53L764,330.85h-1.9l-1.89.31-1.58.64-1.59.95-15.16,1.89L727.33,334l-14.11-2.36s-11.27-2.8-14.45-7-7.37-14.24-7.37-14.24l-4.23-10.56-2.11-12.14,1.05-10.56,2.45-8.45,3.9-6.95,2.95-3.6,1.88-4.73,2.85-4.74,3.48-4.43,3.79-4.11,4.43-3.79,23.06-6,2.86.32,2.84,1,1.9,1.9,1.59,2.21,2.21.64h2.53l1.89-1,1.58-1.9.32-.32.31-.31v-.64l.32-.31,1.58-1.59,2.21-.94h2.22l2.21.32,6,4.43,2.53-1,1.59-1.58,1.26-2.21v-2.84l-.32-.64v-.31l-.31-.63-.32-.64Z" transform="translate(-17.47 -120.58)"/><path class="cls-6" d="M771.9,224.31l-4.43-5.06-4.41-4.42c-11.72-10.2-28.67-14.54-43.63-9.8l-8.22,2.53L703,211l-7.59,4.43-7,5.05-6,6-5.38,6.95-5.19,6.18-4.93,7.09-4.72,6-3.48,7L656.83,267l-.94,13,2.27,13.25.94,6.64,2.21,6.32,1.2,6.35,4.12,5.38,12.64,17.39,7,8.53,7.91,7.27,8.53,6,9.8,5.05,49.63-10.42,4.11-.33c7.19-2.52,9.53-10.69,4.74-16.75l-3.16-2.53L764,330.85h-1.9l-1.89.31-1.58.64-1.59.95-15.16,1.89L727.33,334l-14.11-2.36s-11.27-2.8-14.45-7-7.37-14.24-7.37-14.24l-4.23-10.56-2.11-12.14,1.05-10.56,2.45-8.45,3.9-6.95,2.95-3.6,1.88-4.73,2.85-4.74,3.48-4.43,3.79-4.11,4.43-3.79,23.06-6,2.86.32,2.84,1,1.9,1.9,1.59,2.21,2.21.64h2.53l1.89-1,1.58-1.9.32-.32.31-.31v-.64l.32-.31,1.58-1.59,2.21-.94h2.22l2.21.32,6,4.43,2.53-1,1.59-1.58,1.26-2.21v-2.84l-.32-.64v-.31l-.31-.63-.32-.64Z" transform="translate(-17.47 -120.58)"/><path class="cls-7" d="M298.5,215l1.91-3.16,2.84-2.22L306.4,208l3.8-.63,6.65,3.17,6.63,1.26,6.64.31,6.64-.31,6.63-1.26,5.05,2.83c9.91,7.12,15.28,22.84,12,34.47l-2.52,6.63-7.9,6.65-8.22,5.69L333,271.24l-9.8,3.47-22.75,1L298.5,215Zm-19-11.69-2.21,149.84.32,1.89,1.26,1.26,1.57.65,1.91-.33,9.16-3.16,2.54-1.27,2.21-2.21,1.27-2.84.31-2.85L298.5,288l20.23-.94,2.85.3,2.53,1,2.21,1.58,1.9,2.21,35.09,57.54,2.22,2.21,2.52,1,2.86-.64,2.52-1.89,6.32-8.22,1.27-1.57.3-1.59V337l-.62-1.59-34.46-48.06-.95-2.21v-2.52l.95-2.21,1.9-1.59,5.68-2.85,5.69-3.15,5.38-3.48,4.75-3.79,5.05-3.17,3.48-4.42,1.9-5.37c1.5-18.52.46-24.5-8.23-41.1l-3.79-4.75-4.42-4.42-5.06-3.79-71.13-2.85-2.85.64-2.53,1.57-1.59,2.53-.94,2.86Z" transform="translate(-17.47 -120.58)"/><path class="cls-8" d="M46.3,149.72l9.31-5.47,11.58,3.33L529.33,141c71.45,6,150.8,2.43,222.31-3.81l30.85-2.89,87.45,1.05,45,1.47,37.66,2.52,4.51.59,3.87,1.57,3.89,2.22,2.91,2.85,2.61,3.2,2,3.83.73,8.63v4.5l-6.43,86.8v.33l-7.85,151.44-.87,3.24-1.82,3L953.78,418l-6.55,3.28-385-10.5L56.58,420.25c-8.67.08-15.52-5.94-17.13-14.36l-.35-3.54,7.2-252.63ZM29.59,132.37C28.92,141.67,18,305,18,305l15.43,27.65L24.7,412.41A16.8,16.8,0,0,0,41.53,431l404.22-1.49L807.87,432l169,2.85,4.82-.46,4.13-1.42,3.8-2.05,3.45-3,2.5-1.55,1.49-3.91.81-4.53-.47-4.81L986,347.42l15-193.13c-.44-15.62-14.54-28.47-30.17-27L351,122.06l-8,2.59c-17.26,4.73-30.77,5.06-48.21,1l-8.05-2.26-172.62-2.24-10.3,4.81c-19.27,6.7-32.28,8.17-52.38,4.19l-10.62-2.89s-10.54-4.15-11.24,5.15Z" transform="translate(-17.47 -120.58)"/><path class="cls-9" d="M46.3,149.72l9.31-5.47,11.58,3.33L529.33,141c71.45,6,150.8,2.43,222.31-3.82l30.85-2.88,87.45,1.05,45,1.47,37.66,2.52,4.51.59,3.87,1.57,3.89,2.22,2.91,2.85,2.61,3.2,2,3.83.73,8.63v4.5l-6.43,86.8v.33l-7.85,151.44-.87,3.24-1.82,3L953.78,418l-6.55,3.28-385-10.5L56.58,420.25c-10.11.09-17.4-8-17.48-17.9l7.2-252.63ZM29.59,132.37C28.91,141.67,18,305,18,305l15.43,27.65L24.7,412.41A16.79,16.79,0,0,0,41.53,431l404.22-1.49L807.86,432l169,2.85,4.81-.46,4.14-1.42,3.8-2.05,3.44-3,2.51-1.55,1.48-3.9.82-4.54-.47-4.81L986,347.42l15-193.13c-.44-15.62-14.54-28.47-30.17-27L351,122.06l-8,2.59c-17.26,4.73-30.77,5.06-48.21,1l-8.06-2.26-172.61-2.24-10.3,4.82c-19.28,6.69-32.28,8.16-52.38,4.18l-10.62-2.89s-10.55-4.15-11.24,5.15Z" transform="translate(-17.47 -120.58)"/><path class="cls-10" d="M464.81,252l1.88,5.9.64-.33.63-.32.63-.33h1l1.89.33,1.59.65.94,1.64.64,2,2.84,4.26,2.52,4.59,1.59,4.58.95,5.24v1.64l-.32,1.64-.31,1.31-.95,1.32L475.55,291l-7,2.94-3.47.33h-3.48l-3.79-.66L454.37,292l-4.11.65-4.11-.65-3.79-2-3.17-3.28,7-8.51,6.33-8.19,6.31-8.85,6-9.17ZM456,201.87l-2.21,8.84-2.84,8.53-4.11,7.85-4.74,7.53-3.48,2.3-2.85,2.62-2.85,2.61-2.21,3.27-2.21,3.28-1.59,3.61c-3.61,12.85-6.41,21.78-15.48,32.43l-6.64,6.88-2.21,4.91-.63,4.26.63,3.6,2.21,4.26.95,1.31.32,1.31v1l-.32,1.32-9.17,20.63-.63,2.95.63,3.27,1.58,2.3,2.86,1.64,12.63,3.6h2.84l2.53-1,2.21-2,1-2.62,4.1-22.6,62.29-6.88,4.1,11.46,4.75,10.81,5.36,10.15,6.33,10.48,3.16,2.3,3.48.66,3.48-.66,3.16-2,1.9-3,1-3.59c-.08-3.48-2.78-7.14-3.48-11.15l-1-2.94-2.53-7.2-3.16-9.18L511,308.65c-7.14-20.86-15-41.35-22.13-62.24L484.72,235l-3.48-10.15c-1.63-6.75-3.82-11.47-5.06-18.34l-.31-2v-1l.31-.66-5.05-1.64-5.06-.65H461L456,201.87Zm348.28,22-4.1,3.29-3.79,3.3c-11.28,12.45-12.08,21.26-14.85,37.25l-1,10.2v9.89c-.27,24.43,13.54,49.85,35.07,62l8.54,4.28,8.53,3.3,15.81-2,14.86-3,14.54-4.28,13.91-6.93,1.58-1.32,1-1.31.63-2,.32-2v-9.88l-.32-.66-.31-.33-.63-.34-.64.34L870,336.29l-9.8,2.65-9.15.32-9.17-1.32-9.18-3.29-19-19.11-2.85-6.92L809,301.37l-1.27-7.59-.63-7.57.63-15.16,2.21-15.16,2.23-6.6,2.52-5.6c5-8.94,11.94-15,21.81-18.12l6.33-1.65,17.06-.66,29.71,13.84,8.22.33,1.91-.65,1.58-1.65.32-2-1-2-.93-1.63-.32-2,.32-2,.93-2,1-2,.63-2,.31-2.31-.31-2.31-10.12-4.28-9.79-3.31L872.2,204.8l-10.43-2.3-39.52-.66-2.21.33-1.89,1.31-1.27,1.66-.63,2.29-4.74,2.32-3.8,4-1.58,2-.94,2.63-.64,2.64-.32,3Z" transform="translate(-17.47 -120.58)"/><path class="cls-11" d="M464.81,252l1.88,5.9.64-.33.63-.32.63-.33h1l1.89.33,1.59.65.94,1.64.64,2,2.84,4.26,2.52,4.59,1.59,4.58.95,5.24v1.64l-.32,1.64-.31,1.31-.95,1.32L475.55,291l-7,2.94-3.47.33h-3.48l-3.79-.66L454.37,292l-4.11.65-4.11-.65-3.79-2-3.17-3.28,7-8.51,6.33-8.19,6.31-8.85,6-9.17ZM456,201.87l-2.21,8.84-2.84,8.53-4.11,7.85L442,234.62l-3.47,2.3-2.85,2.62-2.85,2.61-2.21,3.27-2.21,3.28-1.59,3.61c-3.62,12.84-6.41,21.79-15.48,32.43l-6.64,6.88-2.21,4.91-.63,4.26.63,3.6,2.21,4.26.95,1.31.32,1.31v1l-.32,1.32-9.17,20.63-.63,2.95.63,3.27,1.58,2.3,2.85,1.64,12.64,3.6h2.84l2.53-1,2.21-2,.95-2.62,4.11-22.6,62.28-6.88,4.11,11.46,4.75,10.81,5.36,10.15,6.33,10.48,3.16,2.3,3.48.66,3.48-.66,3.16-2,1.9-3,1-3.59c-.08-3.48-2.78-7.14-3.48-11.15l-1-2.94-2.53-7.2-3.16-9.18L511,308.65c-7.14-20.86-15-41.35-22.13-62.24L484.72,235l-3.48-10.15c-1.63-6.75-3.82-11.47-5.06-18.34l-.31-2v-1l.31-.66-5.05-1.64-5.06-.65H461L456,201.87Zm348.28,22-4.1,3.29-3.79,3.3c-11.28,12.45-12.08,21.26-14.85,37.24l-1,10.21v9.89c-.27,24.43,13.54,49.85,35.07,62l8.54,4.28,8.53,3.3,15.81-2,14.86-3,14.54-4.28,13.91-6.93,1.57-1.32,1-1.31.63-2,.32-2v-9.88l-.32-.67-.31-.32-.63-.34-.65.34L870,336.29l-9.8,2.65-9.15.32-9.17-1.32-9.18-3.29-19-19.11-2.85-6.92L809,301.37l-1.27-7.59-.63-7.57.63-15.16,2.21-15.17,2.23-6.59,2.52-5.6c5-8.94,12-15,21.81-18.12l6.33-1.65,17.06-.66,29.71,13.84,8.22.33,1.91-.65,1.58-1.65.32-2-1-2-.93-1.63-.32-2,.32-2,.93-2,1-2,.63-2,.31-2.31-.31-2.31-10.12-4.28-9.79-3.31L872.2,204.8l-10.43-2.3-39.52-.66-2.21.33-1.89,1.31-1.27,1.66-.63,2.29-4.74,2.32-3.8,3.95-1.58,2-.94,2.63-.64,2.63-.32,3Z" transform="translate(-17.47 -120.58)"/></svg>