<svg id="logo" xmlns="http://www.w3.org/2000/svg" width="249.097" height="73.566" viewBox="0 0 249.097 73.566">
  <g id="div" transform="translate(61.097 59.954)">
    <rect id="Retângulo_1" data-name="Retângulo 1" width="186.502" height="0.413" fill="#e30613"/>
  </g>
  <g id="medicis" transform="translate(62.245 47.59)">
    <path id="Caminho_1" data-name="Caminho 1" d="M3690.457,2491.138c-2.105,3.257-4.187,6.543-6.387,9.707h2.8l1.681-2.8h3l.164,2.8h2.716c-.323-3.224-.713-6.526-.9-9.707Zm-.775,4.87,1.708-2.781h.024l.168,2.781Z" transform="translate(-3608.631 -2490.937)"/>
    <path id="Caminho_2" data-name="Caminho 2" d="M3712.94,2493.712c.133-.511.875-.69,1.271-.7a2.748,2.748,0,0,1,1.69.495s.488-1.921.5-2.016a4.767,4.767,0,0,0-2.305-.558c-2.278,0-3.461,1.366-3.682,2.516-.43,2.262,2.261,3.515,1.969,4.555a1.24,1.24,0,0,1-1.376.817,4.086,4.086,0,0,1-2-.572l-.542,2.257a8.759,8.759,0,0,0,2.594.479c2.658.006,3.5-1.2,3.782-2.523.48-2.268-2.223-3.494-1.9-4.75" transform="translate(-3612.733 -2490.903)"/>
    <path id="Caminho_3" data-name="Caminho 3" d="M3681.753,2493.712c.128-.511.875-.69,1.27-.7a2.752,2.752,0,0,1,1.691.495s.626-1.848.637-1.943a4.537,4.537,0,0,0-2.443-.631c-2.277,0-3.463,1.366-3.681,2.516-.432,2.262,2.259,3.515,1.968,4.555a1.243,1.243,0,0,1-1.378.817,4.083,4.083,0,0,1-2-.572l-.542,2.257a8.749,8.749,0,0,0,2.592.479c2.659.006,3.5-1.2,3.785-2.523.48-2.268-2.225-3.464-1.9-4.75" transform="translate(-3607.489 -2490.903)"/>
    <path id="Caminho_4" data-name="Caminho 4" d="M3760.833,2497.436h-.023l-1.5-6.314h-3.021l-2.477,9.7h2.242l1.583-6.2h.022l1.574,6.2h2.986l2.475-9.7h-2.243Z" transform="translate(-3620.356 -2490.935)"/>
    <path id="Caminho_5" data-name="Caminho 5" d="M3727.073,2493.2h3.692l.537-2.083h-6.25l-2.483,9.706h2.559l.979-3.84h3.1l.53-2.081h-3.092Z" transform="translate(-3615.104 -2490.934)"/>
    <path id="Caminho_6" data-name="Caminho 6" d="M3775.084,2491.12h-7.215l-.533,2.077h2.334l-1.947,7.624h2.56l1.946-7.624h2.321Z" transform="translate(-3622.631 -2490.934)"/>
    <path id="Caminho_7" data-name="Caminho 7" d="M3777.229,2491.12l-2.474,9.708h2.557l2.476-9.708Z" transform="translate(-3623.878 -2490.934)"/>
    <path id="Caminho_8" data-name="Caminho 8" d="M3786.4,2496.981l.529-2.08h-3.2l.435-1.7h4.043l.533-2.077h-6.6l-2.479,9.708h6.6l.535-2.088h-4.046l.45-1.759Z" transform="translate(-3624.702 -2490.935)"/>
    <path id="Caminho_9" data-name="Caminho 9" d="M3806.07,2496.981l.533-2.082h-3.277l.436-1.7h4.043l.532-2.077h-6.6l-2.48,9.7h6.6l.533-2.087h-4.044l.449-1.757Z" transform="translate(-3627.997 -2490.935)"/>
    <path id="Caminho_10" data-name="Caminho 10" d="M3748.533,2490.933a6.231,6.231,0,0,0-6.139,5.018c-.823,3.228.689,5.033,3.579,5.033a6.191,6.191,0,0,0,6.092-4.754c.947-3.417-.643-5.3-3.532-5.3m1.037,5.018c-.418,1.545-1.6,2.908-3.057,2.908-1.546,0-1.946-1.4-1.563-2.892s1.5-2.911,3.044-2.911c1.488,0,1.935,1.334,1.576,2.895" transform="translate(-3618.399 -2490.903)"/>
    <path id="Caminho_11" data-name="Caminho 11" d="M3812.936,2493.692c.143-.5.874-.69,1.27-.7a2.756,2.756,0,0,1,1.688.493s.492-1.917.5-2.015a4.764,4.764,0,0,0-2.307-.557c-2.275,0-3.462,1.363-3.681,2.514-.427,2.263,2.26,3.514,1.968,4.556a1.239,1.239,0,0,1-1.377.815,4.06,4.06,0,0,1-1.993-.569l-.544,2.256a8.81,8.81,0,0,0,2.592.479c2.658,0,3.505-1.2,3.784-2.523.481-2.267-2.252-3.516-1.9-4.751" transform="translate(-3629.545 -2490.9)"/>
    <path id="Caminho_12" data-name="Caminho 12" d="M3737.865,2496.562a3.472,3.472,0,0,0,2.576-2.482c.493-1.92-.073-2.954-2.214-2.959h-4.338l-2.473,9.708h2.444l1.954-7.667h1.255c.368,0,1.158,0,.9,1.032a1.7,1.7,0,0,1-1.913,1.256h-.905l.889,5.377h2.751s-.892-4.061-.922-4.267" transform="translate(-3616.591 -2490.934)"/>
    <path id="Caminho_13" data-name="Caminho 13" d="M3795.607,2496.557a3.483,3.483,0,0,0,2.578-2.483c.491-1.921-.076-2.955-2.221-2.955h-4.336l-2.473,9.708h2.444l1.96-7.67h1.254c.365,0,1.156,0,.894,1.034a1.7,1.7,0,0,1-1.912,1.253h-.069l-.836,0,.891,5.379h2.75s-.894-4.062-.924-4.267" transform="translate(-3626.3 -2490.934)"/>
    <path id="Caminho_14" data-name="Caminho 14" d="M3634.285,2500.829l.532-2.078h-4.044l.449-1.758h3.3l.529-2.08h-3.3l.435-1.7h4.045l.529-2.081-6.6,0-2.475,9.7Z" transform="translate(-3599.151 -2490.936)"/>
    <path id="Caminho_15" data-name="Caminho 15" d="M3613.708,2500.83l.53-2.077H3610.2l.449-1.76h3.264l.532-2.08h-3.268l.436-1.7h4.045l.53-2.078h-6.6l-2.476,9.7Z" transform="translate(-3595.691 -2490.937)"/>
    <path id="Caminho_16" data-name="Caminho 16" d="M3641.488,2500.951a21.744,21.744,0,0,0,2.469-.275l.617-2.247a9.12,9.12,0,0,1-2.541.393c-1.574,0-1.967-1.391-1.579-2.89a3.733,3.733,0,0,1,3.507-2.911,5.224,5.224,0,0,1,1.844.391l.554-2.179a7.472,7.472,0,0,0-2.283-.336,6.277,6.277,0,0,0-6.2,5.018c-.83,3.23.7,5.036,3.616,5.036" transform="translate(-3600.827 -2490.897)"/>
    <path id="Caminho_17" data-name="Caminho 17" d="M3649.314,2500.83l2.476-9.7h-2.559l-2.473,9.7Z" transform="translate(-3602.358 -2490.936)"/>
    <path id="Caminho_18" data-name="Caminho 18" d="M3597.318,2493.9h.024l-.137,6.934,2.18,0,3.456-6.952h.024l-1.768,6.952h2.165l2.472-9.7h-3.4l-3.017,6.093h-.023l.163-6.093h-3.6l-2.474,9.7h2.164Z" transform="translate(-3593.385 -2490.937)"/>
    <path id="Caminho_19" data-name="Caminho 19" d="M3653.909,2500.829l1.58-6.194h.025l1.575,6.194h2.983l2.474-9.7h-2.239l-1.611,6.312h-.023l-1.508-6.312-3.01,0-2.49,9.7Z" transform="translate(-3603.183 -2490.936)"/>
    <path id="Caminho_20" data-name="Caminho 20" d="M3626.1,2495.971c1.047-4.1-1.175-4.844-2.37-4.844h-4.595l-2.474,9.7h4.056c2.8,0,4.662-2.038,5.382-4.86m-2.559,0c-.365,1.424-1.378,2.779-2.792,2.779h-1.107l1.413-5.545h1.278c1.363,0,1.669.963,1.208,2.766" transform="translate(-3597.298 -2490.936)"/>
    <path id="Caminho_21" data-name="Caminho 21" d="M3667.669,2493.712c.131-.511.876-.69,1.268-.7a2.756,2.756,0,0,1,1.69.494s.488-1.917.5-2.016a4.741,4.741,0,0,0-2.3-.556c-2.28,0-3.464,1.365-3.685,2.514-.429,2.261,2.263,3.515,1.971,4.556a1.241,1.241,0,0,1-1.377.816,4.078,4.078,0,0,1-2-.57l-.543,2.255a8.745,8.745,0,0,0,2.595.48c2.657.005,3.5-1.2,3.782-2.521.482-2.271-2.229-3.474-1.9-4.752" transform="translate(-3605.122 -2490.904)"/>
    <path id="Caminho_22" data-name="Caminho 22" d="M3705.581,2491.137l-1.61,6.317h-.022l-1.509-6.317h-3.021l-2.477,9.709h2.242l1.58-6.2h.024l1.581,6.2h2.983l2.472-9.709Z" transform="translate(-3610.795 -2490.938)"/>
  </g>
  <g id="symbol">
    <path id="Caminho_23" data-name="Caminho 23" d="M3590.5,2479.833c-.293-.293.082-.335.419-.465,1.246-.481,8.685-2.811,15.161-4.516,6.452-1.7,15.792-3.637,17.178-3.917a.84.84,0,0,1,1.1.448,14.98,14.98,0,0,1,1.33,3.879,10.152,10.152,0,0,1-.151,4.26c-.141.381-.668.408-1.926.749-.755.206-3.975,1.036-5.3,1.417-1.518.442-5.546,1.607-7.03,2.115-1.835.625-4.253,1.423-4.253,1.423l-12.809.218a3.856,3.856,0,0,0-.3-.941c-.115-.077-.306-.494-.419-.609a2.364,2.364,0,0,1-.266-.533s-.114-.455-.228-.532-.389-.731-.5-.808a3.456,3.456,0,0,1-.484-.561,2.146,2.146,0,0,0-.371-.494,6.411,6.411,0,0,0-.578-.533c-.153-.076-.281-.311-.573-.6" transform="translate(-3530.636 -2439.953)" fill="#e30613"/>
    <path id="Caminho_24" data-name="Caminho 24" d="M3549.384,2505.407c.708-.416,2.3-1.269,2.492-1.384.3-.183.487-.157.5-.065.038.362.028,1.124.489,1.28.133.043.478-.119.541-.026a2.261,2.261,0,0,0,.223.278c.052.092.284.04.332.086.128.116-.008.27.066.351.119.126.343-.081.455-.058a.337.337,0,0,1,.224.422c-.058.245.094.432.495.1.21-.176.225-.086.4-.176a.357.357,0,0,1,.361.028,1.089,1.089,0,0,0,.31.25c.168.062.347,0,.45.042.156.063.161.291.3.311s.266-.239.352-.16c.24.226-.2.615.1.7.167.045.234-.085.367-.1s.21-.178.324-.178.2.136.341.056c.119-.064.213-.112.322-.177.161-.1.328-.049.421-.126.114-.091.028-.341.361-.279s-.054.378.1.507c.117.1.4,0,.492-.028a.827.827,0,0,0,.419-.448,9.546,9.546,0,0,1,.475-.988c.115-.173.4-.838.552-1.067s.76-1.2.818-1.348a4.916,4.916,0,0,1,.331-.476c.058-.114.181-.5.333-.8s.569-.911.608-1.025.36-.856.474-1.083.515-.753.61-1,.359-.77.359-.77l.286-.475s.094-.21.228-.494.532-.893.647-1.1.437-.646.437-.646l.247-.551.189-.418a5.619,5.619,0,0,1,.229-.628c.075-.133.341-.456.418-.626s.3-.933.419-1.16.664-1.216.723-1.408.625-1.217.683-1.424a4.088,4.088,0,0,1,.15-.632c.077-.13.3-.475.343-.57s.419-1.008.475-1.139.1-.382.249-.382.26.165.359.305c.115.162.343.132.476.265a5.889,5.889,0,0,1,.59.685c.018.076.265.1.322.171s.1.267.171.3a2.537,2.537,0,0,1,.531.418,2.19,2.19,0,0,0,.266.419,3.582,3.582,0,0,1,.588.456c.057.114.685.875.76,1.009s.134.361.189.457.286.227.306.323a2.409,2.409,0,0,0,.1.533c.056.095.321.209.359.3a3.285,3.285,0,0,0,.211.514,1.04,1.04,0,0,1,.205.208c.04.077.08.5.135.572a4.355,4.355,0,0,1,.3.532c.058.13.25.379.286.474s.056.477.094.607.21.419.229.5.059.3.059.3l.151.362a2,2,0,0,1,.172.5,1.947,1.947,0,0,0,.056.378c.02.1.171.34.171.418a3.457,3.457,0,0,0,.21.515,1.867,1.867,0,0,0,0,.475,2.482,2.482,0,0,1,.208.455,2.536,2.536,0,0,1-.056.344l.1.152a.63.63,0,0,0-.019.284c.039.076-.037.249.019.3a3.119,3.119,0,0,1,.209.459c-.115.135-8.042,3.8-11.44,5.388-4.895,2.287-15.074,7.394-16.157,8.021s-1.766.988-2.028.854a5.327,5.327,0,0,1-2.248-3.043,8.706,8.706,0,0,1-.522-3.534,1.271,1.271,0,0,1,.759-1.316c.265-.154,1.661-.94,2.371-1.358" transform="translate(-3523.213 -2442.552)" fill="#e30613"/>
    <path id="Caminho_25" data-name="Caminho 25" d="M3533.067,2470.415c.039.086.208.068.328.1.068.017.194.136.271.146s.192-.031.23,0c.126.094.1.22.177.333s.115.3.229.344.266.019.3.132-.047.29.037.437c.216.375.029,1.425.218,1.5a1.44,1.44,0,0,0,.96-.286,4.724,4.724,0,0,1,.646-.571,8.259,8.259,0,0,1,1.14-.493c.273-.057.414-.508.683-.534s.172-.237.363-.313.546-.27.659-.156a.922.922,0,0,0,.334.266c.211.081.432-.024.469.2.056.343.57.038.57.038a9.631,9.631,0,0,1,.9-.523c.266-.114.973-.483.973-.483s.558-.29.789-.4c8.562-4.114,15.313-6.383,21.511-8.784,9.649-3.74,26.351-8.028,29.526-8.822.334-.084,1.074-.2,1.167-.252a.5.5,0,0,0,.316-.4c.078-.3-.15-.72-.15-.874s.341-.76.379-1.029a.264.264,0,0,0-.229-.3,1.752,1.752,0,0,0-.038-.571c-.07-.241-.495-.457-.569-.647s0-.76-.077-.951a.9.9,0,0,0-.3-.342.349.349,0,0,0,0-.266.226.226,0,0,0-.227-.153,1.994,1.994,0,0,0,.039-.493c-.031-.133-.228-.227-.228-.227s-.229-.152-.229-.3a.368.368,0,0,0-.152-.342,2.984,2.984,0,0,0-.571-.116,1.289,1.289,0,0,0-.569-.074,4.285,4.285,0,0,1-.8.3,4.846,4.846,0,0,1-.988.039c-.229.037-.491.2-.76.265-2.584.674-14.44,4.127-23.182,7.416a245.283,245.283,0,0,0-23.715,10.533c-4.468,2.323-6.857,3.668-7.844,4.28a5.688,5.688,0,0,0-1.155.836c-.133.23-.288.584-.582.625-.358.051-.309.247-.422.277a1.11,1.11,0,0,0-.4.286.289.289,0,0,0-.028.342" transform="translate(-3520.991 -2435.647)" fill="#e30613"/>
    <path id="Caminho_26" data-name="Caminho 26" d="M3577.4,2466.93c-.395-.237-.259-.459.2-.656,2.827-1.209,9.968-3.756,14.059-5.059,3.5-1.108,13.15-4.253,15.843-5.029.644-.184.9-.177,1.192.126a13.767,13.767,0,0,1,2.1,3.113,17.166,17.166,0,0,1,1.359,4.014c.152.8-.213.932-.646,1.125-2.989,1.336-10.36,4.568-13.425,6.015-2.995,1.418-8.475,4.052-10.331,4.986-.784.4-.654.557-1.187-.05a7.47,7.47,0,0,1-.493-.724c-.077-.114-1.1-1.026-1.219-1.14s-.683-.8-.834-.912-.647-.8-.8-.876a2.266,2.266,0,0,1-.522-.312,4.554,4.554,0,0,0-.429-.427,3.948,3.948,0,0,1-.37-.343l-.352-.323-.3-.345a1.688,1.688,0,0,0-.455-.417,1.639,1.639,0,0,1-.532-.5,6.217,6.217,0,0,0-.99-1.065c-.3-.188-1.033-.663-1.186-.779s-.355-.231-.685-.427" transform="translate(-3528.412 -2437.468)" fill="#e30613"/>
    <path id="Caminho_27" data-name="Caminho 27" d="M3570.76,2448.891c-.365.012-.684.009-.771-.1-.049-.063,0-.164-.086-.243a.31.31,0,0,0-.327-.012.382.382,0,0,1-.171.084c-.128.043-.612-.129-.783-.072a1.261,1.261,0,0,1-.657.016c-.123-.062-.143-.4-.357-.486a1.517,1.517,0,0,1-.583-.442c-.115-.2-.414-.5-.478-.639s-.162-.37-.208-.488a2.246,2.246,0,0,0-.226-.442c-.073-.086-.17-.162-.244-.241s-.137-.354-.214-.472c-.037-.06-.125-.18-.171-.27s-.042-.2-.086-.3-.171-.256-.2-.355a8.657,8.657,0,0,1-.057-1.283,8.014,8.014,0,0,1,.057-1.184c.052-.207.157-.4.2-.614s.314-.912.386-1.24a10.205,10.205,0,0,1,.328-1.156,9.392,9.392,0,0,1,.428-.97c.112-.186.541-.827.712-1.041a14.479,14.479,0,0,1,1.14-1.141c.186-.142.617-.457.754-.556.082-.06.636-.445.813-.556a.787.787,0,0,1,.343-.086l.185-.186a1.485,1.485,0,0,1,.2-.186.811.811,0,0,1,.343-.069.789.789,0,0,1,.569-.158c.13.026.215-.2.329-.228a1.4,1.4,0,0,1,.583-.03.575.575,0,0,0,.358.172c.227.043.425-.011.514.014.117.033.24.185.327.212a9.544,9.544,0,0,1,1.267,1.228,2.21,2.21,0,0,1,.086.286,1.157,1.157,0,0,1,.283.457c.05.209.259.273.287.57.014.181.349.33.441.7.024.088.068.451.1.507s.105.076.147.2a1.334,1.334,0,0,1,.059.472,7.676,7.676,0,0,1,.24,1.1,4.8,4.8,0,0,1-.185,1.013c-.085.269-.028.782-.085,1s-.213.725-.243.884a12.738,12.738,0,0,1-.54,1.354c-.072.114-.323.6-.437.745s-.991,1.367-1.147,1.526a8.279,8.279,0,0,0-.625.568c-.105.16-.189.35-.3.527-.176.28-.412.073-.528.27-.159.27-.46.342-.513.5a1.292,1.292,0,0,1-.371.527,1.816,1.816,0,0,1-.883.314" transform="translate(-3526.391 -2433.723)" fill="#e30613"/>
    <path id="Caminho_28" data-name="Caminho 28" d="M3537.332,2492.994s-3.748,1.266-5.245,1.8c-1.418.505-2.97,1.054-4.018,1.484-1.269.515-3.512,1.431-4.046,1.617-.835.293-1.191.119-1.419-.377a14.622,14.622,0,0,1-1.072-2.746,14.771,14.771,0,0,1-.429-2.6,1.651,1.651,0,0,1,.749-1.3c.459-.251,1.546-.917,2.422-1.421,1.67-.96,7.427-4.033,10.857-5.806,3.63-1.88,9.356-4.657,12.433-6.178s8.135-3.917,8.745-4.184a6.172,6.172,0,0,1,1.556-.57c.3,0,.19.152.19.266s-.1.163-.143.389a4.852,4.852,0,0,1-.085.716c-.076.226-.275.444-.313.6a2.757,2.757,0,0,1-.219.885,7.612,7.612,0,0,0-.807,1.74,8.582,8.582,0,0,1-.484,1.492,6.077,6.077,0,0,0-.514,1.132,9.953,9.953,0,0,1-.36,1c-.077.227-.532,1.075-.607,1.226s-.381,1.169-.458,1.321-.38.609-.38.609l-.153.647a4.037,4.037,0,0,0-.417.722,6.409,6.409,0,0,1-.456,1.371,17.064,17.064,0,0,0-1.026,2.431c-.152.569-.419,1.407-.495,1.6s-.493.874-.569,1.1-.419,1.368-.533,1.6a4.389,4.389,0,0,0-.418,1.1,4.234,4.234,0,0,1-.418,1.14c-.189.419-.418,1.141-.532,1.409s-.267.451-.305.6-.073.574-.113.688-.116.3-.116.3c-.188.091-10.413,4.487-11.855,5.172s-11.818,5.6-12.464,5.908-1.507.966-2.129.543a7.81,7.81,0,0,1-2.13-2.763,10.13,10.13,0,0,1-.988-3.344c-.087-1.31.46-1.55,2.379-2.665.942-.545,8.405-4.483,10.8-5.724.679-.349,5.586-2.934,5.586-2.934" transform="translate(-3518.558 -2440.26)" fill="#e30613"/>
  </g>
  <g id="médicos_sem_fronteiras" data-name="médicos sem fronteiras" transform="translate(58.447 61.367)">
    <path id="Caminho_29" data-name="Caminho 29" d="M3740.278,2510.238l-1.614,6.313h-.021l-1.506-6.313h-3.021l-2.477,9.7h2.242l1.583-6.2h.023l1.574,6.2h2.986l2.475-9.7Z" transform="translate(-3612.83 -2507.916)"/>
    <path id="Caminho_30" data-name="Caminho 30" d="M3702.885,2510.237l-2.483,9.7h2.56l.979-3.84h3.1l.528-2.081h-3.091l.433-1.7h3.692l.536-2.082Z" transform="translate(-3607.578 -2507.916)"/>
    <path id="Caminho_31" data-name="Caminho 31" d="M3745.7,2510.238l-.532,2.077h2.332l-1.947,7.623h2.56l1.947-7.623h2.32l.534-2.077Z" transform="translate(-3615.105 -2507.916)"/>
    <path id="Caminho_32" data-name="Caminho 32" d="M3755.273,2510.234l-2.478,9.708h6.6l.537-2.087h-4.047l.45-1.76h3.2l.529-2.08h-3.2l.434-1.7h4.045l.533-2.079Z" transform="translate(-3616.387 -2507.916)"/>
    <path id="Caminho_33" data-name="Caminho 33" d="M3726.366,2510.028a6.226,6.226,0,0,0-6.141,5.016c-.823,3.229.69,5.034,3.58,5.034a6.193,6.193,0,0,0,6.092-4.754c.948-3.417-.645-5.3-3.531-5.3m1.035,5.016c-.418,1.544-1.6,2.908-3.058,2.908-1.545,0-1.945-1.4-1.562-2.891s1.5-2.911,3.046-2.911c1.486,0,1.933,1.334,1.575,2.894" transform="translate(-3610.874 -2507.881)"/>
    <path id="Caminho_35" data-name="Caminho 35" d="M3793.427,2512.805c.144-.505.873-.692,1.27-.7a2.755,2.755,0,0,1,1.688.5s.491-1.919.5-2.017a4.774,4.774,0,0,0-2.308-.556c-2.275,0-3.46,1.363-3.68,2.514-.428,2.263,2.259,3.515,1.969,4.556a1.242,1.242,0,0,1-1.379.815,4.066,4.066,0,0,1-1.994-.57l-.543,2.257a8.76,8.76,0,0,0,2.592.479c2.658,0,3.5-1.2,3.784-2.524.481-2.268-2.252-3.515-1.9-4.75" transform="translate(-3622.466 -2507.882)"/>
    <path id="Caminho_34" data-name="Caminho 34" d="M3715.7,2515.675a3.473,3.473,0,0,0,2.577-2.483c.494-1.921-.073-2.954-2.214-2.959h-4.338l-2.473,9.708h2.444l1.954-7.666h1.255c.369,0,1.159,0,.9,1.033a1.7,1.7,0,0,1-1.912,1.254h-.905l.889,5.377h2.751s-.893-4.06-.923-4.265" transform="translate(-3609.066 -2507.916)"/>
    <path id="Caminho_36" data-name="Caminho 36" d="M3773.384,2515.671a3.48,3.48,0,0,0,2.579-2.483c.491-1.921-.076-2.954-2.218-2.954h-4.338l-2.473,9.709h2.443l1.958-7.672h1.255c.366,0,1.156,0,.894,1.034a1.7,1.7,0,0,1-1.912,1.255h-.9l.89,5.381h2.751s-.894-4.063-.925-4.269" transform="translate(-3618.764 -2507.916)"/>
    <path id="Caminho_37" data-name="Caminho 37" d="M3782.178,2510.243c-2.1,3.249-4.179,6.532-6.376,9.693h2.8l1.677-2.8h3l.163,2.8h2.712c-.323-3.22-.712-6.517-.9-9.693Zm-.771,4.863,1.706-2.777h.022l.169,2.777Z" transform="translate(-3620.256 -2507.918)"/>
    <path id="Caminho_38" data-name="Caminho 38" d="M3764.791,2510.238l-2.474,9.7h2.557l2.476-9.7Z" transform="translate(-3617.988 -2507.916)"/>
    <path id="Caminho_39" data-name="Caminho 39" d="M3667.905,2512.806c.13-.511.877-.69,1.268-.7a2.772,2.772,0,0,1,1.691.492s.488-1.917.5-2.014a4.747,4.747,0,0,0-2.3-.556c-2.278,0-3.463,1.364-3.684,2.514-.428,2.262,2.262,3.515,1.971,4.555a1.24,1.24,0,0,1-1.377.816,4.086,4.086,0,0,1-2-.57l-.542,2.256a8.722,8.722,0,0,0,2.594.479c2.657,0,3.5-1.2,3.783-2.52.481-2.273-2.229-3.474-1.9-4.753" transform="translate(-3601.363 -2507.881)"/>
    <path id="Caminho_40" data-name="Caminho 40" d="M3674.145,2510.238l-2.476,9.7h6.6l.529-2.078h-4.043l.448-1.76h3.265l.53-2.079h-3.267l.437-1.7h4.043l.532-2.079Z" transform="translate(-3602.748 -2507.916)"/>
    <path id="Caminho_41" data-name="Caminho 41" d="M3690.188,2510.239l-3.018,6.094h-.024l.164-6.094h-3.6l-2.476,9.7h2.165l1.77-6.936h.023l-.136,6.935,2.181,0,3.455-6.953h.023l-1.768,6.952h2.166l2.47-9.7Z" transform="translate(-3604.356 -2507.917)"/>
    <path id="Caminho_42" data-name="Caminho 42" d="M3632.326,2520.079a21.383,21.383,0,0,0,2.469-.275l.616-2.246a9.042,9.042,0,0,1-2.541.395c-1.573,0-1.966-1.393-1.578-2.892a3.732,3.732,0,0,1,3.506-2.911,5.222,5.222,0,0,1,1.844.392l.555-2.179a7.485,7.485,0,0,0-2.283-.336,6.278,6.278,0,0,0-6.2,5.018c-.83,3.23.7,5.035,3.616,5.035" transform="translate(-3595.488 -2507.881)"/>
    <path id="Caminho_43" data-name="Caminho 43" d="M3625.609,2519.941l2.477-9.7h-2.56l-2.474,9.7Z" transform="translate(-3594.573 -2507.917)"/>
    <path id="Caminho_44" data-name="Caminho 44" d="M3592.753,2513h.024l-.137,6.934,2.18,0,3.456-6.953h.023l-1.768,6.953h2.166l2.472-9.7h-3.4l-3.017,6.093h-.024l.164-6.093h-3.6l-2.476,9.7h2.164Z" transform="translate(-3588.819 -2507.917)"/>
    <path id="Caminho_45" data-name="Caminho 45" d="M3621.536,2515.079c1.046-4.1-1.175-4.841-2.372-4.841h-4.594l-2.474,9.7h4.056c2.8,0,4.662-2.037,5.383-4.862m-2.56,0c-.366,1.425-1.379,2.78-2.794,2.78h-1.106l1.414-5.546h1.277c1.364,0,1.67.964,1.209,2.766" transform="translate(-3592.732 -2507.916)"/>
    <path id="Caminho_46" data-name="Caminho 46" d="M3653.9,2512.806c.132-.511.877-.69,1.269-.7a2.77,2.77,0,0,1,1.69.492s.489-1.917.5-2.014a4.742,4.742,0,0,0-2.3-.556c-2.278,0-3.462,1.364-3.684,2.514-.429,2.262,2.263,3.515,1.971,4.555a1.241,1.241,0,0,1-1.378.816,4.079,4.079,0,0,1-2-.57l-.543,2.256a8.732,8.732,0,0,0,2.595.479c2.657,0,3.5-1.2,3.782-2.52.481-2.273-2.229-3.474-1.9-4.753" transform="translate(-3599.007 -2507.881)"/>
    <path id="Caminho_47" data-name="Caminho 47" d="M3644.413,2510.039a6.213,6.213,0,0,0-6.129,5.008c-.827,3.225.685,5.026,3.572,5.026a6.183,6.183,0,0,0,6.083-4.744c.945-3.414-.643-5.29-3.526-5.29m1.033,5.008c-.417,1.543-1.6,2.9-3.053,2.9-1.542,0-1.942-1.392-1.561-2.887s1.5-2.906,3.041-2.906c1.484,0,1.932,1.33,1.573,2.889" transform="translate(-3597.097 -2507.884)"/>
    <path id="Caminho_48" data-name="Caminho 48" d="M3609.121,2519.94l.53-2.075h-4.041l.448-1.758h3.3l.527-2.079h-3.294l.435-1.7h4.041l.531-2.081H3605l-2.475,9.695Z" transform="translate(-3591.123 -2507.918)"/>
    <path id="Caminho_49" data-name="Caminho 49" d="M3609.368,2507.449h2.159l-1.461,1.389h-1.75Z" transform="translate(-3592.096 -2507.449)"/>
  </g>
</svg>
